<svg width="50" height="50" viewBox="0 0 50 50" fill="none" xmlns="http://www.w3.org/2000/svg">
<path fill-rule="evenodd" clip-rule="evenodd" d="M24.5 37C31.3927 37 37 31.3927 37 24.5C37 17.6083 31.3927 12 24.5 12C17.6073 12 12 17.6083 12 24.5C12 31.3927 17.6073 37 24.5 37ZM24.5 14.0833C30.2438 14.0833 34.9167 18.7562 34.9167 24.5C34.9167 30.2437 30.2438 34.9167 24.5 34.9167C18.7563 34.9167 14.0833 30.2437 14.0833 24.5C14.0833 18.7562 18.7563 14.0833 24.5 14.0833ZM25.8469 29.4031C26.05 29.6063 26.3167 29.7083 26.5833 29.7083C26.85 29.7083 27.1167 29.6063 27.3198 29.4031C27.7271 28.9969 27.7271 28.3365 27.3198 27.9302L23.8896 24.5L27.3198 21.0698C27.7271 20.6635 27.7271 20.0042 27.3198 19.5969C26.9125 19.1896 26.2542 19.1896 25.8469 19.5969L21.6802 23.7635C21.2729 24.1698 21.2729 24.8302 21.6802 25.2365L25.8469 29.4031Z" fill="#5813FE"/>
</svg>
