<svg width="50" height="50" viewBox="0 0 50 50" fill="none" xmlns="http://www.w3.org/2000/svg">
<path fill-rule="evenodd" clip-rule="evenodd" d="M24.4552 37C17.5872 37 12 31.3927 12 24.5C12 17.6073 17.5872 12 24.4552 12C31.3232 12 36.9104 17.6073 36.9104 24.5C36.9104 31.3927 31.3232 37 24.4552 37ZM24.4552 14.0833C18.732 14.0833 14.0759 18.7562 14.0759 24.5C14.0759 30.2437 18.732 34.9167 24.4552 34.9167C30.1784 34.9167 34.8345 30.2437 34.8345 24.5C34.8345 18.7562 30.1784 14.0833 24.4552 14.0833ZM29.6449 25.5417H19.2655C18.6926 25.5417 18.2276 25.075 18.2276 24.5C18.2276 23.925 18.6926 23.4583 19.2655 23.4583H29.6449C30.2178 23.4583 30.6828 23.925 30.6828 24.5C30.6828 25.075 30.2178 25.5417 29.6449 25.5417Z" fill="#5813FE"/>
</svg>
