<svg width="50" height="50" viewBox="0 0 50 50" fill="none" xmlns="http://www.w3.org/2000/svg">
<path fill-rule="evenodd" clip-rule="evenodd" d="M33.261 33.3385C30.9091 35.7 27.7818 37 24.4552 37C21.1286 37 18.0013 35.7 15.6494 33.3385C13.2953 30.9781 12 27.8385 12 24.5C12 21.1615 13.2953 18.0229 15.6494 15.6615C18.0003 13.301 21.1286 12 24.4552 12C27.7818 12 30.9101 13.301 33.2621 15.6625C35.614 18.0229 36.9104 21.1615 36.9104 24.5C36.9104 27.8385 35.614 30.9781 33.261 33.3385ZM31.7934 17.1354C29.8338 15.1667 27.2275 14.0833 24.4552 14.0833C21.6829 14.0833 19.0766 15.1667 17.117 17.1354C15.1553 19.1031 14.0759 21.7177 14.0759 24.5C14.0759 27.2823 15.1553 29.8979 17.117 31.8656C19.0766 33.8333 21.6829 34.9167 24.4552 34.9167C27.2275 34.9167 29.8338 33.8333 31.7934 31.8656C33.754 29.8979 34.8345 27.2823 34.8345 24.5C34.8345 21.7177 33.754 19.1031 31.7934 17.1354ZM29.6449 25.5417H25.4931V29.7083C25.4931 30.2833 25.0281 30.75 24.4552 30.75C23.8823 30.75 23.4173 30.2833 23.4173 29.7083V25.5417H19.2655C18.6926 25.5417 18.2276 25.075 18.2276 24.5C18.2276 23.925 18.6926 23.4583 19.2655 23.4583H23.4173V19.2917C23.4173 18.7167 23.8823 18.25 24.4552 18.25C25.0281 18.25 25.4931 18.7167 25.4931 19.2917V23.4583H29.6449C30.2178 23.4583 30.6828 23.925 30.6828 24.5C30.6828 25.075 30.2178 25.5417 29.6449 25.5417Z" fill="#5813FE"/>
</svg>
