<svg width="50" height="50" viewBox="0 0 50 50" fill="none" xmlns="http://www.w3.org/2000/svg">
<path fill-rule="evenodd" clip-rule="evenodd" d="M24.5 37C17.6073 37 12 31.3927 12 24.5C12 17.6083 17.6073 12 24.5 12C31.3927 12 37 17.6083 37 24.5C37 31.3927 31.3927 37 24.5 37ZM24.5 14.0833C18.7562 14.0833 14.0833 18.7562 14.0833 24.5C14.0833 30.2437 18.7562 34.9167 24.5 34.9167C30.2437 34.9167 34.9167 30.2437 34.9167 24.5C34.9167 18.7562 30.2437 14.0833 24.5 14.0833ZM23.1531 29.4031C22.95 29.6063 22.6833 29.7083 22.4167 29.7083C22.15 29.7083 21.8833 29.6063 21.6802 29.4031C21.2729 28.9969 21.2729 28.3365 21.6802 27.9302L25.1104 24.5L21.6802 21.0698C21.2729 20.6635 21.2729 20.0042 21.6802 19.5969C22.0875 19.1896 22.7458 19.1896 23.1531 19.5969L27.3198 23.7635C27.7271 24.1698 27.7271 24.8302 27.3198 25.2365L23.1531 29.4031Z" fill="#5813FE"/>
</svg>
